<?xml version="1.0" standalone="no"?><!DOCTYPE svg PUBLIC "-//W3C//DTD SVG 1.1//EN" "http://www.w3.org/Graphics/SVG/1.1/DTD/svg11.dtd"><svg t="1578244410031" class="icon" viewBox="0 0 1024 1024" version="1.1" xmlns="http://www.w3.org/2000/svg" p-id="15158" xmlns:xlink="http://www.w3.org/1999/xlink" width="200" height="200"><defs><style type="text/css"></style></defs><path d="M710.9911 202.599278V820.878836c0 5.725398-4.64274 10.365068-10.365068 10.365069h-98.884125c-2.749624 0-5.408173-1.082658-7.346315-3.064802-1.984191-1.892093-3.064802-4.551666-3.064802-7.30129V202.598254c0-5.725398 4.643764-10.365068 10.364045-10.365068h98.884124c2.747577 0 5.409197 1.082658 7.346316 3.064802 1.984191 1.892093 3.064802 4.551666 3.064802 7.30129h0.001023z m-290.121633-10.366092h-98.884125c-5.724375 0-10.413164 4.643764-10.365069 10.365068v618.279559c0 2.749624 1.082658 5.408173 3.064803 7.346315 1.937119 1.937119 4.597715 3.064802 7.346315 3.064802h98.884124c5.725398 0 10.413164-4.643764 10.365069-10.365068V202.600301c0-2.747577-1.082658-5.408173-3.064802-7.346315-1.937119-1.937119-4.597715-3.018753-7.346315-3.018753v-0.002047z" fill="" p-id="15159"></path></svg>