<?xml version="1.0" standalone="no"?><!DOCTYPE svg PUBLIC "-//W3C//DTD SVG 1.1//EN" "http://www.w3.org/Graphics/SVG/1.1/DTD/svg11.dtd"><svg t="1578243981917" class="icon" viewBox="0 0 1024 1024" version="1.1" xmlns="http://www.w3.org/2000/svg" p-id="7620" xmlns:xlink="http://www.w3.org/1999/xlink" width="200" height="200"><defs><style type="text/css"></style></defs><path d="M832 940.8c-12.8 0-28.8-6.4-38.4-16l-307.2-307.2-12.8 3.2c-35.2 12.8-70.4 22.4-108.8 22.4-38.4 0-73.6-6.4-108.8-22.4-70.4-28.8-121.6-83.2-150.4-150.4-25.6-60.8-28.8-124.8-9.6-185.6l121.6 121.6c19.2 19.2 41.6 28.8 67.2 28.8s48-9.6 67.2-28.8l54.4-54.4c19.2-19.2 28.8-41.6 28.8-67.2s-9.6-48-28.8-67.2L281.6 96c25.6-9.6 54.4-12.8 83.2-12.8 35.2 0 70.4 6.4 105.6 19.2 70.4 28.8 121.6 83.2 150.4 150.4 28.8 67.2 25.6 144-3.2 214.4l-6.4 12.8 310.4 310.4c22.4 22.4 22.4 54.4 0 76.8l-54.4 54.4c-9.6 12.8-22.4 19.2-35.2 19.2z" p-id="7621"></path></svg>